# xmcd CD database file
#
# Track frame offsets:
#	150
#	15566
#	29373
#	42790
#	56778
#	72981
#	86454
#	98617
#	111463
#	121878
#	135845
#	151289
#
# Disc length: 2205 seconds
#
# Revision: 0
# Processed by: cddbd v1.5.1PL0 Copyright (c) Steve Scherf et al.
# Submitted via: CDex 1.51
#
DISCID=92089b0c
DTITLE=Fats Waller - Aint Misbehavin
DYEAR=1956
DGENRE=Jazz
TTITLE0=Honeysuckle Rose
TTITLE1=Ain't Misbehavin'
TTITLE2=I Can't Give You Anything But Love, Baby
TTITLE3=Two Sleepy People
TTITLE4=I'm Gonna Sit Right Down And Write Myself A Letter
TTITLE5=It's A Sin To Tell A Lie
TTITLE6=The Minor Drag
TTITLE7=The Joint Is Jumpin'
TTITLE8=Hold Tight
TTITLE9=Your Feet's Too Big
TTITLE10=Until The Real Thing Comes Along
TTITLE11=Tea For Two
EXTD=YEAR: 1956
EXTT0=
EXTT1=
EXTT2=
EXTT3=
EXTT4=
EXTT5=
EXTT6=
EXTT7=
EXTT8=
EXTT9=
EXTT10=
EXTT11=
PLAYORDER=
